<svg width="23" height="23" viewBox="0 0 23 23" fill="none" xmlns="http://www.w3.org/2000/svg">
<path d="M3.15221 2.33317H8.01632L9.58413 6.2527L7.06551 7.93178C6.76413 8.1327 6.58311 8.47095 6.58311 8.83317C6.58586 8.9346 6.58311 8.83425 6.58311 8.83425L6.58311 8.83539L6.58311 8.83782L6.58315 8.84328L6.58331 8.85665C6.58347 8.86663 6.58374 8.87876 6.5842 8.89296C6.58511 8.92136 6.58677 8.95808 6.58974 9.00256C6.59567 9.0915 6.60684 9.21173 6.62785 9.35877C6.66983 9.65267 6.75132 10.0553 6.90953 10.5299C7.2272 11.4829 7.8514 12.7169 9.06707 13.9325C10.2827 15.1482 11.5167 15.7724 12.4697 16.0901C12.9443 16.2483 13.3469 16.3298 13.6408 16.3718C13.7879 16.3928 13.9081 16.4039 13.997 16.4099C14.0415 16.4128 14.0782 16.4145 14.1066 16.4154C14.1208 16.4159 14.133 16.4161 14.143 16.4163L14.1563 16.4165L14.1618 16.4165L14.1642 16.4165L14.1654 16.4165C14.1654 16.4165 14.2863 16.4099 14.1664 16.4165C14.5768 16.4165 14.9519 16.1847 15.1354 15.8177L15.8609 14.3666L20.6664 15.1676V19.8474C18.3794 20.1781 12.2028 20.5041 7.34914 15.6505C2.49548 10.7968 2.82147 4.62019 3.15221 2.33317ZM8.82956 9.35976L10.786 8.05548C11.6385 7.48714 11.9764 6.39933 11.5958 5.44802L10.028 1.52849C9.69898 0.705898 8.90228 0.166504 8.01632 0.166504H3.09561C2.11139 0.166504 1.18495 0.850263 1.02338 1.91815C0.65579 4.34763 0.155456 11.5209 5.81707 17.1825C11.4787 22.8442 18.652 22.3438 21.0815 21.9762C22.1493 21.8147 22.8331 20.8882 22.8331 19.904V15.1676C22.8331 14.1084 22.0674 13.2045 21.0226 13.0304L16.2171 12.2295C15.2789 12.0731 14.3484 12.5469 13.923 13.3977L13.5476 14.1484C13.4296 14.1195 13.2979 14.0823 13.1549 14.0346C12.4829 13.8106 11.5501 13.3515 10.5991 12.4005C9.64815 11.4495 9.18901 10.5167 8.96501 9.84476C8.90448 9.66317 8.86091 9.49991 8.82956 9.35976Z" fill="white"/>
</svg>
