<svg width="80" height="80" viewBox="0 0 80 80" fill="none" xmlns="http://www.w3.org/2000/svg">
<path d="M77.9372 25.1761C75.1958 22.4345 70.735 22.4347 67.9927 25.1767C67.1492 26.0209 61.7641 31.4105 60.9414 32.2339V13.6603C60.9414 11.7822 60.21 10.0166 58.8819 8.68859L52.253 2.05938C50.925 0.73125 49.1592 0 47.2811 0H7.03516C3.15812 0 0.00390625 3.15422 0.00390625 7.03125V72.9688C0.00390625 76.8458 3.15812 80 7.03516 80H53.9102C57.7872 80 60.9414 76.8458 60.9414 72.9688V52.1298L77.937 35.1198C80.685 32.372 80.6856 27.9242 77.9372 25.1761ZM46.8791 4.6875C47.3219 4.6875 48.1752 4.61078 48.9384 5.37391L55.5675 12.0031C56.3112 12.747 56.2541 13.5622 56.2541 14.0625H46.8791V4.6875ZM56.2539 72.9688C56.2539 74.2611 55.2027 75.3125 53.9102 75.3125H7.03516C5.74281 75.3125 4.69141 74.2611 4.69141 72.9688V7.03125C4.69141 5.73891 5.74281 4.6875 7.03516 4.6875H42.1914V16.4062C42.1914 17.7006 43.2408 18.75 44.5352 18.75H56.2539V36.9255C56.2539 36.9255 49.3392 43.8461 49.3389 43.8462L46.0259 47.1594C45.7687 47.4166 45.5747 47.7303 45.4597 48.0755L42.145 58.0192C41.8642 58.8614 42.0834 59.79 42.7113 60.4177C43.3398 61.0462 44.2687 61.2644 45.1097 60.9839L55.0534 57.6694C55.3986 57.5544 55.7123 57.3605 55.9695 57.1031L56.2539 56.8188V72.9688ZM50.9977 48.8167L54.3122 52.1313L53.0461 53.3973L48.0744 55.0545L49.7316 50.0827L50.9977 48.8167ZM57.6261 48.8159L54.3116 45.5014C56.0766 43.735 63.9155 35.8894 65.578 34.2255L68.8925 37.54L57.6261 48.8159ZM74.6219 31.8059L72.2058 34.2241L68.8913 30.9095L71.3081 28.4906C72.2225 27.5767 73.7091 27.5769 74.6228 28.4906C75.5364 29.4047 75.5413 30.8864 74.6219 31.8059Z" fill="#5BBCA1"/>
<path d="M44.5352 23.4375H11.7227C10.4283 23.4375 9.37891 24.4869 9.37891 25.7812C9.37891 27.0756 10.4283 28.125 11.7227 28.125H44.5352C45.8295 28.125 46.8789 27.0756 46.8789 25.7812C46.8789 24.4869 45.8295 23.4375 44.5352 23.4375Z" fill="#5BBCA1"/>
<path d="M35.1602 32.8125H11.7227C10.4283 32.8125 9.37891 33.8619 9.37891 35.1562C9.37891 36.4506 10.4283 37.5 11.7227 37.5H35.1602C36.4545 37.5 37.5039 36.4506 37.5039 35.1562C37.5039 33.8619 36.4545 32.8125 35.1602 32.8125Z" fill="#5BBCA1"/>
<path d="M35.1602 42.1875H11.7227C10.4283 42.1875 9.37891 43.2369 9.37891 44.5312C9.37891 45.8256 10.4283 46.875 11.7227 46.875H35.1602C36.4545 46.875 37.5039 45.8256 37.5039 44.5312C37.5039 43.2369 36.4545 42.1875 35.1602 42.1875Z" fill="#5BBCA1"/>
<path d="M35.1602 51.5625H11.7227C10.4283 51.5625 9.37891 52.6119 9.37891 53.9062C9.37891 55.2006 10.4283 56.25 11.7227 56.25H35.1602C36.4545 56.25 37.5039 55.2006 37.5039 53.9062C37.5039 52.6119 36.4545 51.5625 35.1602 51.5625Z" fill="#5BBCA1"/>
<path d="M44.5352 65.9375H30.4727C29.1783 65.9375 28.1289 66.9869 28.1289 68.2812C28.1289 69.5756 29.1783 70.625 30.4727 70.625H44.5352C45.8295 70.625 46.8789 69.5756 46.8789 68.2812C46.8789 66.9869 45.8295 65.9375 44.5352 65.9375Z" fill="#5BBCA1"/>
</svg>
