<svg width="80" height="80" viewBox="0 0 80 80" fill="none" xmlns="http://www.w3.org/2000/svg">
<path d="M65.4906 71.6805C65.4907 71.6606 65.4908 71.6407 65.4908 71.6208V48.2379C65.4908 47.119 65.3902 46.0221 65.1975 44.9561H68.4525C73.5777 44.9561 77.7509 49.1293 77.7508 54.2543V54.2544V67.0014C77.7508 69.5794 75.6498 71.6805 73.0717 71.6805H65.4906Z" stroke="#5BBCA1" stroke-width="4.5"/>
<path d="M14.8034 44.957C14.6108 46.023 14.5102 47.12 14.5102 48.2389V71.6218C14.5102 71.6417 14.5103 71.6617 14.5104 71.6816H6.92908C4.35096 71.6816 2.25 69.5806 2.25 67.0025V54.2555C2.25 49.1303 6.42327 44.957 11.5485 44.957H14.8034Z" stroke="#5BBCA1" stroke-width="4.5"/>
<path d="M32.9274 38.9404H47.0714C52.1966 38.9404 56.3699 43.1137 56.3699 48.2389V71.6217C56.3699 71.6342 56.3678 71.6403 56.3661 71.6443C56.3638 71.6498 56.3595 71.6569 56.3524 71.664C56.3454 71.671 56.3383 71.6753 56.3328 71.6777C56.3288 71.6794 56.3226 71.6814 56.3102 71.6814H23.6886C23.6762 71.6814 23.6701 71.6794 23.6661 71.6777C23.6606 71.6754 23.6535 71.671 23.6464 71.6639C23.6394 71.6569 23.635 71.6497 23.6327 71.6442C23.631 71.6402 23.6289 71.6341 23.6289 71.6217V48.2389C23.6289 43.1137 27.8022 38.9404 32.9274 38.9404Z" stroke="#5BBCA1" stroke-width="4.5"/>
<path d="M34.3156 30.1101C30.7586 28.1091 28.3613 24.3043 28.3613 19.958C28.3613 13.5423 33.5843 8.31934 39.9998 8.31934C46.4152 8.31934 51.6382 13.5424 51.6382 19.958C51.6382 24.3042 49.2411 28.1091 45.684 30.1101C44.0023 31.056 42.0656 31.5964 39.9998 31.5964C37.934 31.5964 35.9973 31.0561 34.3156 30.1101ZM34.3156 30.1101L33.2124 32.0711L34.3156 30.1101Z" stroke="#5BBCA1" stroke-width="4.5"/>
<path d="M22.7929 33.2191L22.793 33.219C23.402 32.0796 23.7481 30.7819 23.7481 29.4004C23.7481 24.9158 20.096 21.2637 15.6113 21.2637C11.1266 21.2637 7.47461 24.9157 7.47461 29.4004C7.47461 33.8851 11.1266 37.5372 15.6113 37.5372C16.7506 37.5372 17.8318 37.3017 18.8146 36.8787L22.7929 33.2191ZM22.7929 33.2191C21.9232 34.8463 20.5163 36.146 18.8147 36.8786L22.7929 33.2191Z" stroke="#5BBCA1" stroke-width="4.5"/>
<path d="M57.2052 33.2191L57.2051 33.2189C56.5961 32.0797 56.25 30.7821 56.25 29.4004C56.25 24.9157 59.902 21.2637 64.3867 21.2637C68.8715 21.2637 72.5235 24.9157 72.5235 29.4004C72.5235 33.8851 68.8715 37.5372 64.3867 37.5372C63.2474 37.5372 62.1662 37.3016 61.1834 36.8786C59.4819 36.1462 58.0749 34.8466 57.2052 33.2191Z" stroke="#5BBCA1" stroke-width="4.5"/>
</svg>
