<svg width="80" height="80" viewBox="0 0 80 80" fill="none" xmlns="http://www.w3.org/2000/svg">
<path d="M39.998 9.37305C38.7037 9.37305 37.6543 10.4224 37.6543 11.7168C37.6543 13.0112 38.7037 14.0605 39.998 14.0605C47.7534 14.0605 54.0629 20.369 54.0629 28.123C54.0629 29.4174 55.1123 30.4668 56.4066 30.4668C57.701 30.4668 58.7504 29.4174 58.7504 28.123C58.7504 17.7843 50.3382 9.37305 39.998 9.37305Z" fill="#5BBCA1"/>
<path d="M33.959 0.629794C23.37 2.84245 14.784 11.3462 12.5248 22.001C10.6172 30.9982 12.9679 40.031 18.9744 46.7834C21.9104 50.0839 23.5942 54.4406 23.5942 58.7485V63.436C23.5942 66.5548 25.6359 69.2043 28.4525 70.122C29.3787 75.5946 34.1287 79.9984 40.0004 79.9984C45.8706 79.9984 50.6219 75.596 51.5484 70.122C54.365 69.2043 56.4067 66.5548 56.4067 63.4359V58.7484C56.4067 54.432 58.0961 50.1276 61.1633 46.6282C65.653 41.5064 68.1255 34.9345 68.1255 28.1235C68.1255 10.379 51.8834 -3.11489 33.959 0.629794ZM40.0004 75.311C36.9876 75.311 34.3461 73.2379 33.3706 70.4517H46.6301C45.6548 73.2379 43.0133 75.311 40.0004 75.311ZM51.7192 63.436C51.7192 64.7284 50.6678 65.7798 49.3755 65.7798H30.6255C29.3331 65.7798 28.2817 64.7284 28.2817 63.436V61.0923H51.7192V63.436ZM57.6383 43.5387C54.3695 47.2679 52.3584 51.7648 51.8481 56.4048H28.1533C27.6436 51.7623 25.6376 47.2212 22.477 43.6679C17.4711 38.0404 15.515 30.4974 17.1104 22.9734C18.9728 14.1899 26.129 7.05479 34.9179 5.21839C49.9217 2.08292 63.438 13.3504 63.438 28.1235C63.438 33.7973 61.3783 39.2718 57.6383 43.5387Z" fill="#5BBCA1"/>
<path d="M7.03125 28.123H2.34375C1.04937 28.123 0 29.1724 0 30.4668C0 31.7612 1.04937 32.8105 2.34375 32.8105H7.03125C8.32563 32.8105 9.375 31.7612 9.375 30.4668C9.375 29.1724 8.32563 28.123 7.03125 28.123Z" fill="#5BBCA1"/>
<path d="M8.00305 16.4053L4.68852 13.0908C3.77336 12.1755 2.2893 12.1755 1.37398 13.0908C0.458672 14.0061 0.458672 15.49 1.37398 16.4053L4.68852 19.7198C5.60367 20.6352 7.08773 20.6353 8.00305 19.7198C8.91836 18.8045 8.91836 17.3206 8.00305 16.4053Z" fill="#5BBCA1"/>
<path d="M8.00305 41.2158C7.08773 40.3005 5.60367 40.3005 4.68852 41.2158L1.37398 44.5303C0.458672 45.4456 0.458672 46.9295 1.37398 47.8448C2.28914 48.7601 3.7732 48.7603 4.68852 47.8448L8.00305 44.5303C8.91836 43.615 8.91836 42.1311 8.00305 41.2158Z" fill="#5BBCA1"/>
<path d="M77.6562 28.123H72.9688C71.6744 28.123 70.625 29.1724 70.625 30.4668C70.625 31.7612 71.6744 32.8105 72.9688 32.8105H77.6562C78.9506 32.8105 80 31.7612 80 30.4668C80 29.1724 78.9506 28.123 77.6562 28.123Z" fill="#5BBCA1"/>
<path d="M78.6281 13.0908C77.7129 12.1755 76.2288 12.1755 75.3135 13.0908L71.999 16.4053C71.0837 17.3206 71.0837 18.8045 71.999 19.7198C72.9141 20.635 74.3982 20.6352 75.3135 19.7198L78.6281 16.4053C79.5434 15.49 79.5434 14.0061 78.6281 13.0908Z" fill="#5BBCA1"/>
<path d="M78.6281 44.5303L75.3135 41.2158C74.3984 40.3005 72.9143 40.3005 71.999 41.2158C71.0837 42.1311 71.0837 43.615 71.999 44.5303L75.3135 47.8448C76.2287 48.76 77.7127 48.7602 78.6281 47.8448C79.5434 46.9295 79.5434 45.4456 78.6281 44.5303Z" fill="#5BBCA1"/>
</svg>
