<svg width="111" height="43" viewBox="0 0 111 43" fill="none" xmlns="http://www.w3.org/2000/svg">
<path d="M15.5086 2.22356C13.7088 3.27452 9.90914 5.49163 7.08085 7.13286C4.25256 8.77409 1.69568 10.2714 1.39571 10.4585L0.867188 10.804L0.895756 21.3281L0.938609 31.8521L3.22409 33.1766C4.48111 33.9108 6.56662 35.1202 7.86649 35.8832C9.16636 36.6462 10.4662 37.3948 10.7662 37.5676C11.0662 37.7404 12.2946 38.4458 13.4802 39.1512C14.6801 39.8423 15.9371 40.5765 16.2942 40.7781C16.6513 40.9796 17.337 41.3827 17.8226 41.6707C18.3083 41.9586 18.7797 42.189 18.8797 42.189C19.0511 42.189 19.8367 41.7427 25.4362 38.4746C27.1217 37.4812 28.7644 36.531 29.0786 36.3439C29.3929 36.1711 30.6214 35.4657 31.7927 34.7746C32.9783 34.0836 34.621 33.119 35.4637 32.6439L37.0064 31.7513V21.2849V10.8184L35.6923 10.041C34.9638 9.6235 31.9926 7.88149 29.0786 6.19707C26.1789 4.51265 22.765 2.52589 21.508 1.79166C20.251 1.05743 19.1225 0.423969 19.0082 0.380779C18.894 0.351982 17.3227 1.1726 15.5086 2.22356ZM7.86649 12.2437C8.7664 12.9204 10.1663 13.9569 10.9805 14.5472L12.4375 15.6125V19.9748C12.4375 24.6249 12.5089 25.1432 13.1231 25.4743C13.4516 25.6471 14.1373 25.6759 14.5087 25.5463C15.1229 25.3016 15.1515 25.0136 15.1515 17.7145V10.804H20.1938C25.8218 10.804 26.4789 10.8904 28.2644 11.7398C29.5786 12.3589 30.6642 13.453 31.3213 14.7919C31.7784 15.7277 31.7927 15.8285 31.7927 17.4985C31.7927 19.0678 31.7641 19.2981 31.407 20.0467C31.1784 20.5506 30.6356 21.2849 30.0357 21.9039L29.0501 22.9261L30.2214 26.6837C30.8642 28.7568 31.4356 30.5996 31.4927 30.7723C31.6927 31.4058 31.7355 31.4202 27.9359 28.584C26.4503 27.4611 24.6648 26.1366 23.9792 25.6327L22.7221 24.6969V22.0191V19.3269L23.5792 19.2693C24.222 19.2261 24.522 19.1254 24.7934 18.8662C25.279 18.4055 25.3933 17.7145 25.0648 17.153C24.7505 16.6203 24.2506 16.4188 22.9078 16.318L21.8937 16.2316L21.8365 21.0401C21.7794 25.4311 21.7508 25.9206 21.4794 26.6693C20.5938 29.1887 18.8225 30.7867 16.1514 31.4922C14.7087 31.8665 12.0946 31.8377 10.7233 31.4058C8.20931 30.6284 6.62375 28.872 6.06667 26.2374C5.79527 24.8985 5.7667 10.732 6.05238 10.8904C6.13809 10.9624 6.96658 11.5671 7.86649 12.2437Z" fill="white"/>
<path d="M61.1474 13.6832C59.7047 13.8992 58.7191 14.3743 57.8477 15.2525C56.905 16.2171 56.6479 16.9369 56.7478 18.4054C56.8336 19.5427 57.2049 20.3633 57.9192 20.9968C58.5905 21.5871 59.4333 21.9614 61.4759 22.5516C64.0471 23.3147 64.5471 23.6314 64.3471 24.4088C64.2185 24.9127 63.6043 25.2006 62.6187 25.2006C61.6331 25.2006 60.9046 24.8263 60.676 24.1929L60.5189 23.761H58.4762H56.4336V24.1929C56.4336 25.2006 57.2621 26.5251 58.3477 27.2882C59.4476 28.0512 60.6617 28.3823 62.3044 28.3823C65.3613 28.3679 67.2325 27.4465 68.1181 25.5174C68.5895 24.452 68.6181 22.9403 68.161 21.9902C67.5325 20.6945 66.5897 20.133 63.5043 19.2116C61.5902 18.6501 60.8617 18.2182 60.8617 17.6711C60.8617 17.1672 61.076 16.9657 61.6616 16.8649C62.6901 16.6778 64.0043 17.2104 64.0043 17.8151C64.0043 17.9591 64.4471 18.0023 66.0755 18.0023H68.1467L68.061 17.5992C67.6753 15.7852 66.3755 14.3887 64.6471 13.8992C63.69 13.64 62.1187 13.5393 61.1474 13.6832Z" fill="white"/>
<path d="M42.0039 18.247C42.0039 22.8251 42.1039 23.9769 42.5896 25.287C43.0038 26.4099 44.0751 27.4897 45.2179 27.9504C46.0035 28.2671 46.2749 28.2959 48.4318 28.2959C50.5459 28.2959 50.8744 28.2527 51.5887 27.9648C52.6314 27.5473 53.6313 26.6547 54.0884 25.7477C54.7598 24.4232 54.8598 23.5018 54.8598 18.5349V13.9711H52.7314H50.5888L50.5459 18.7508C50.5031 23.0555 50.4745 23.6026 50.2459 24.0776C49.6031 25.359 47.2605 25.4021 46.6606 24.1352C46.4749 23.7321 46.432 22.8827 46.432 18.8084L46.4178 13.9711H44.218H42.0039V18.247Z" fill="white"/>
<path d="M69.2891 15.7565C69.2891 17.0522 69.3319 17.556 69.4748 17.6136C69.5605 17.6424 70.4461 17.6712 71.4317 17.6712L73.2172 17.6568L73.2601 22.8685L73.2887 28.0801H75.4313H77.574V22.8972V17.7144L79.2595 17.7C80.1737 17.6856 81.0593 17.6712 81.2165 17.6568C81.4879 17.6424 81.5021 17.5273 81.545 15.7996L81.5878 13.9713H75.4313H69.2891V15.7565Z" fill="white"/>
<path d="M83.1445 15.5548V17.1384H88.5726H94.0006V15.5548V13.9711H88.5726H83.1445V15.5548Z" fill="white"/>
<path d="M95.8594 21.0257V28.0801H97.8163H99.759L99.6733 24.2937C99.6161 22.2206 99.5304 20.2338 99.4876 19.8739C99.2876 18.5062 99.659 19.586 100.773 23.7179L101.93 28.0081L103.344 28.0513C104.13 28.0657 104.816 28.0369 104.873 27.9793C104.93 27.9217 105.501 25.9638 106.13 23.6315C106.758 21.2992 107.315 19.3556 107.373 19.3125C107.43 19.2693 107.43 19.586 107.373 20.0179C107.33 20.4498 107.244 22.4509 107.187 24.4377L107.101 28.0801H109.044H111.001V21.0257V13.9713L108.401 14L105.816 14.0432L104.658 18.3191C104.03 20.6801 103.473 22.6093 103.416 22.6093C103.373 22.6093 103.116 21.8175 102.859 20.8385C102.616 19.8739 102.087 17.9448 101.716 16.5627L101.03 14.0432L98.4448 14L95.8594 13.9713V21.0257Z" fill="white"/>
<path d="M83.1445 21.0257V22.6094H88.5726H94.0006V21.0257V19.4421H88.5726H83.1445V21.0257Z" fill="white"/>
<path d="M83.1445 26.4964V28.0801H88.5726H94.0006V26.4964V24.9128H88.5726H83.1445V26.4964Z" fill="white"/>
<path d="M42.1645 32.0247C42.0502 32.1543 42.0073 33.1045 42.0359 35.1488L42.0788 38.0857H42.5073H42.9358L43.0072 37.078L43.0787 36.0702L43.5786 36.027C44.0643 35.9982 44.0929 36.0126 44.6357 37.078C45.0927 37.9562 45.2642 38.1577 45.5356 38.1577C46.0641 38.1577 46.0926 37.769 45.607 36.79L45.1642 35.883L45.5213 35.6383C46.7354 34.8321 46.7069 32.9893 45.4499 32.1543C45.0356 31.8663 44.7785 31.8231 43.65 31.8231C42.7073 31.8231 42.2787 31.8807 42.1645 32.0247ZM45.0785 33.1908C45.2784 33.378 45.4356 33.7091 45.4356 33.9107C45.4356 34.1122 45.2784 34.4434 45.0785 34.6305C44.7928 34.9328 44.5928 34.9904 43.8643 34.9904H43.0072V33.9107V32.8309H43.8643C44.5928 32.8309 44.7928 32.8885 45.0785 33.1908Z" fill="white"/>
<path d="M52.4348 31.9818C50.9349 32.5865 50.1064 34.3861 50.5921 36.0129C51.392 38.6907 55.2773 38.921 56.4487 36.3584C57.1629 34.8036 56.4487 32.788 54.9345 32.097C54.306 31.809 53.0204 31.7514 52.4348 31.9818ZM54.7345 33.1767C56.0487 34.0693 56.0201 35.9409 54.706 36.8191C53.1347 37.8701 51.0778 36.272 51.5777 34.4005C51.9491 33.004 53.5632 32.3849 54.7345 33.1767Z" fill="white"/>
<path d="M61.6742 31.924C61.6171 31.9672 61.5742 33.3636 61.5742 35.0049C61.5742 37.5819 61.6028 37.9994 61.8028 38.0714C62.3027 38.2585 64.7453 38.1578 65.231 37.9274C66.2023 37.4667 66.5594 36.243 66.0023 35.3072C65.7738 34.9329 65.7452 34.7745 65.8738 34.5298C66.1023 34.0979 66.0595 33.1621 65.7881 32.7446C65.3167 32.0247 64.7739 31.8232 63.2026 31.8232C62.417 31.8232 61.7171 31.8664 61.6742 31.924ZM64.6882 33.0613C64.8596 33.1765 65.0024 33.4356 65.0024 33.6228C65.0024 34.1555 64.5025 34.4146 63.474 34.4146H62.5741V33.6228V32.831H63.474C64.0454 32.831 64.4739 32.9029 64.6882 33.0613ZM64.9882 35.7679C65.3595 36.1134 65.3738 36.4877 65.0024 36.862C64.7739 37.0924 64.5311 37.15 63.6454 37.15H62.5741V36.2718V35.3936L63.6312 35.4512C64.4168 35.48 64.7739 35.5663 64.9882 35.7679Z" fill="white"/>
<path d="M72.3598 32.0536C71.217 32.687 70.5885 33.7092 70.5742 34.9617C70.5742 36.2718 71.1884 37.294 72.3455 37.8987C73.2025 38.345 74.6452 38.2298 75.4594 37.6395C77.2735 36.3582 77.245 33.522 75.4023 32.2839C74.6595 31.7944 73.0597 31.6792 72.3598 32.0536ZM75.0881 33.4357C75.6594 34.0115 75.888 34.7458 75.7166 35.5232C75.6451 35.8111 75.3737 36.2718 75.0881 36.5454C74.6738 36.9773 74.4738 37.0636 73.831 37.1212C73.2025 37.1644 72.9883 37.1212 72.5883 36.8333C71.2599 35.9263 71.2599 34.0403 72.574 33.1477C72.9883 32.8598 73.2025 32.8166 73.831 32.8598C74.4738 32.9174 74.6738 33.0038 75.0881 33.4357Z" fill="white"/>
<path d="M80.845 32.0537C80.5164 32.4568 80.8593 32.7591 81.7592 32.8023L82.5734 32.8455L82.6019 35.4657L82.6448 38.0859H83.0733H83.5019L83.5447 35.4657L83.5733 32.8455L84.4732 32.8023C85.2874 32.7591 85.3588 32.7303 85.4017 32.4136C85.4302 32.2265 85.3731 32.0105 85.2588 31.9529C85.1588 31.8809 84.1589 31.8233 83.059 31.8233C81.3878 31.8233 81.0021 31.8665 80.845 32.0537Z" fill="white"/>
<path d="M90.2302 32.0535C90.1874 32.1831 90.1445 33.522 90.1445 35.048C90.1445 37.8986 90.1874 38.1577 90.7445 38.1577C91.2016 38.1577 91.2873 37.6538 91.2873 34.9904C91.2873 33.4644 91.2301 32.2694 91.1444 32.0967C90.9587 31.7655 90.3588 31.7368 90.2302 32.0535Z" fill="white"/>
<path d="M98.0296 32.1257C95.0585 33.6086 96.1155 38.1867 99.4438 38.1723C100.658 38.1723 102.001 37.3949 101.772 36.819C101.629 36.4159 101.201 36.4015 100.644 36.7902C99.558 37.5245 98.1582 37.1358 97.5868 35.9408C97.2011 35.1634 97.2154 34.7459 97.6154 33.9829C98.1868 32.8743 99.2866 32.5576 100.487 33.1479C101.029 33.407 101.158 33.4214 101.358 33.263C101.729 32.9607 101.558 32.5144 100.929 32.1545C100.158 31.7082 98.8867 31.7082 98.0296 32.1257Z" fill="white"/>
<path d="M106.913 32.0679C105.985 32.5286 105.713 33.7523 106.356 34.5441C106.756 35.0048 107.228 35.2064 108.342 35.3647C109.127 35.4799 109.57 35.8254 109.57 36.3437C109.57 36.8332 109.07 37.1499 108.27 37.1499C107.585 37.1499 106.856 36.7468 106.856 36.3581C106.856 36.0846 106.313 35.9406 106.071 36.1422C105.756 36.4013 105.813 36.79 106.242 37.3083C106.742 37.913 107.37 38.1577 108.385 38.1577C109.727 38.1577 110.613 37.4235 110.613 36.3005C110.613 35.1776 109.913 34.5441 108.499 34.3426C107.57 34.1986 106.999 33.9107 106.999 33.5508C106.999 33.1332 107.556 32.8309 108.327 32.8309C108.913 32.8309 109.07 32.9029 109.413 33.2772C109.699 33.5795 109.927 33.7091 110.156 33.6659C110.841 33.5795 110.556 32.6582 109.67 32.1111C109.099 31.7512 107.57 31.7368 106.913 32.0679Z" fill="white"/>
</svg>
