<svg width="80" height="223" viewBox="0 0 80 223" fill="none" xmlns="http://www.w3.org/2000/svg">
<g clip-path="url(#clip0_433_2510)">
<path d="M41 73.5V725.5" stroke="#5BBCA1" stroke-width="4"/>
<circle cx="40" cy="40" r="40" fill="#5BBCA1"/>
<path d="M50.12 48.2V55H31.6V48.2H37.28V33.72C37.0667 34.04 36.7067 34.4 36.2 34.8C35.6933 35.1733 35.1067 35.5467 34.44 35.92C33.8 36.2667 33.1467 36.56 32.48 36.8C31.8133 37.04 31.2133 37.16 30.68 37.16V30.2C31.4 30.2 32.1333 30.0133 32.88 29.64C33.6533 29.2667 34.36 28.84 35 28.36C35.6667 27.88 36.2 27.44 36.6 27.04C37.0267 26.64 37.2533 26.4267 37.28 26.4H45.04V48.2H50.12Z" fill="white"/>
</g>
<defs>
<clipPath id="clip0_433_2510">
<rect width="80" height="223" fill="white"/>
</clipPath>
</defs>
</svg>
