<svg width="80" height="265" viewBox="0 0 80 265" fill="none" xmlns="http://www.w3.org/2000/svg">
<g clip-path="url(#clip0_433_2524)">
<path d="M41 -149.5V502.5" stroke="#5BBCA1" stroke-width="4"/>
<circle cx="40" cy="40" r="40" fill="#5BBCA1"/>
<path d="M30.44 55C30.44 53.32 30.4933 51.8667 30.6 50.64C30.7333 49.4133 30.9733 48.3333 31.32 47.4C31.6933 46.44 32.24 45.5867 32.96 44.84C33.7067 44.0667 34.68 43.3067 35.88 42.56C36.68 42.08 37.52 41.6 38.4 41.12C39.3067 40.6133 40.1467 40.0933 40.92 39.56C41.72 39 42.36 38.3867 42.84 37.72C43.3467 37.0533 43.6 36.2933 43.6 35.44C43.6 34.8267 43.48 34.3467 43.24 34C43 33.6533 42.68 33.4 42.28 33.24C41.88 33.08 41.4533 33 41 33C40.3067 33 39.6 33.1467 38.88 33.44C38.1867 33.7067 37.5067 34.0533 36.84 34.48C36.2 34.9067 35.6267 35.3733 35.12 35.88L30.44 30.8C30.9733 30.1867 31.6267 29.6133 32.4 29.08C33.2 28.5467 34.0933 28.0667 35.08 27.64C36.0933 27.2133 37.1867 26.88 38.36 26.64C39.5333 26.4 40.7733 26.28 42.08 26.28C44.24 26.28 46.08 26.6267 47.6 27.32C49.12 28.0133 50.28 29.0133 51.08 30.32C51.88 31.6 52.28 33.1333 52.28 34.92C52.28 35.9333 52.1467 36.8667 51.88 37.72C51.64 38.5733 51.2667 39.3733 50.76 40.12C50.28 40.84 49.6933 41.5067 49 42.12C48.3067 42.7333 47.52 43.32 46.64 43.88C45.6267 44.52 44.7733 45.0667 44.08 45.52C43.4133 45.9467 42.84 46.32 42.36 46.64C41.88 46.9333 41.4667 47.2133 41.12 47.48C40.7733 47.72 40.4267 47.96 40.08 48.2H52.32V55H30.44Z" fill="white"/>
</g>
<defs>
<clipPath id="clip0_433_2524">
<rect width="80" height="265" fill="white"/>
</clipPath>
</defs>
</svg>
