<svg width="80" height="223" viewBox="0 0 80 223" fill="none" xmlns="http://www.w3.org/2000/svg">
<g clip-path="url(#clip0_433_2538)">
<path d="M41 -414.5V237.5" stroke="#5BBCA1" stroke-width="4"/>
<circle cx="40" cy="40" r="40" fill="#5BBCA1"/>
<path d="M39.44 55.2C38.08 55.2 36.8133 55.0933 35.64 54.88C34.4933 54.64 33.4267 54.28 32.44 53.8C31.48 53.32 30.5733 52.72 29.72 52L33.6 46.48C34.1067 46.88 34.64 47.2133 35.2 47.48C35.76 47.72 36.3467 47.9067 36.96 48.04C37.6 48.1733 38.2933 48.24 39.04 48.24C39.9467 48.24 40.68 48.1467 41.24 47.96C41.8267 47.7733 42.2533 47.4933 42.52 47.12C42.8133 46.72 42.96 46.2267 42.96 45.64C42.96 44.9733 42.7867 44.44 42.44 44.04C42.0933 43.6133 41.5333 43.3067 40.76 43.12C40.0133 42.9067 39.04 42.8 37.84 42.8H36.6V37.52H38C39.28 37.52 40.3067 37.2667 41.08 36.76C41.8533 36.2533 42.24 35.5867 42.24 34.76C42.24 34.3333 42.1333 33.9733 41.92 33.68C41.7333 33.36 41.44 33.12 41.04 32.96C40.6667 32.8 40.2 32.72 39.64 32.72C38.7333 32.72 37.8667 32.96 37.04 33.44C36.2133 33.8933 35.4933 34.5867 34.88 35.52L30.08 29.88C30.72 29.16 31.5733 28.5333 32.64 28C33.7333 27.4667 34.96 27.0533 36.32 26.76C37.68 26.44 39.08 26.28 40.52 26.28C42.4933 26.28 44.2133 26.5733 45.68 27.16C47.1733 27.7467 48.3333 28.5733 49.16 29.64C49.9867 30.68 50.4 31.9067 50.4 33.32C50.4 34.3867 50.1733 35.3867 49.72 36.32C49.2667 37.2267 48.6533 38 47.88 38.64C47.1067 39.2533 46.2267 39.6533 45.24 39.84C46.3333 40.0267 47.2933 40.4533 48.12 41.12C48.9733 41.7867 49.64 42.64 50.12 43.68C50.6 44.6933 50.84 45.8133 50.84 47.04C50.84 48.72 50.3733 50.1733 49.44 51.4C48.5333 52.6 47.2267 53.5333 45.52 54.2C43.8133 54.8667 41.7867 55.2 39.44 55.2Z" fill="white"/>
</g>
<defs>
<clipPath id="clip0_433_2538">
<rect width="80" height="223" fill="white"/>
</clipPath>
</defs>
</svg>
